<svg width="52" height="92" viewBox="0 0 52 92" fill="none" xmlns="http://www.w3.org/2000/svg">
<path d="M49.4238 2.25119C50.6658 3.54044 51.3635 5.28881 51.3635 7.11181C51.3635 8.93482 50.6658 10.6832 49.4238 11.9724L16.63 46.0037L49.4238 80.0349C50.6306 81.3316 51.2983 83.0682 51.2832 84.8708C51.2681 86.6734 50.5714 88.3978 49.3431 89.6724C48.1147 90.9471 46.4531 91.6702 44.716 91.6858C42.979 91.7015 41.3055 91.0085 40.056 89.7562L2.57838 50.8643C1.33639 49.5751 0.638672 47.8267 0.638672 46.0037C0.638672 44.1807 1.33639 42.4323 2.57838 41.1431L40.056 2.25119C41.2984 0.962325 42.9832 0.238281 44.7399 0.238281C46.4966 0.238281 48.1814 0.962325 49.4238 2.25119Z" fill="white"/>
</svg>
