<svg width="51" height="92" viewBox="0 0 51 92" fill="none" xmlns="http://www.w3.org/2000/svg">
<path d="M2.06618 2.24728C0.82418 3.53654 0.126465 5.2849 0.126465 7.10791C0.126465 8.93091 0.82418 10.6793 2.06618 11.9685L34.8599 45.9998L2.06618 80.031C0.859379 81.3277 0.191613 83.0643 0.206708 84.8669C0.221802 86.6695 0.918548 88.3939 2.14688 89.6685C3.37521 90.9432 5.03684 91.6663 6.77389 91.6819C8.51094 91.6976 10.1844 91.0046 11.4339 89.7523L48.9115 50.8604C50.1535 49.5712 50.8513 47.8228 50.8513 45.9998C50.8513 44.1768 50.1535 42.4284 48.9115 41.1392L11.4339 2.24728C10.1916 0.958419 8.50676 0.234375 6.75005 0.234375C4.99334 0.234375 3.30855 0.958419 2.06618 2.24728Z" fill="white"/>
</svg>
